HIERARCHY
ROOT joint_Root
{
	OFFSET 0.0 0.0 0.0
	CHANNELS 6 Xposition Yposition Zposition Zrotation Xrotation Yrotation 
	JOINT Hips
	{
		OFFSET 4.5925 91.4895 -427.239
		CHANNELS 6 Xposition Yposition Zposition Zrotation Xrotation Yrotation 
		JOINT Spine
		{
			OFFSET 15.7357 0.0 0.0
			CHANNELS 6 Xposition Yposition Zposition Zrotation Xrotation Yrotation 
			JOINT Chest
			{
				OFFSET 8.98455 -0.406207 0.0
				CHANNELS 6 Xposition Yposition Zposition Zrotation Xrotation Yrotation 
				JOINT Neck
				{
					OFFSET 16.3773 0.0 0.0
					CHANNELS 6 Xposition Yposition Zposition Zrotation Xrotation Yrotation 
					JOINT Head
					{
						OFFSET 6.45672 0.0 0.0
						CHANNELS 6 Xposition Yposition Zposition Zrotation Xrotation Yrotation 
						End Site
						{
							OFFSET 0.0 0.0 0.0
						}
					}
				}
				JOINT Shoulder_L
				{
					OFFSET 12.9942 -0.242716 4.98039
					CHANNELS 6 Xposition Yposition Zposition Zrotation Xrotation Yrotation 
					JOINT UpperArm_L
					{
						OFFSET 5.34809 0.0 0.0
						CHANNELS 6 Xposition Yposition Zposition Zrotation Xrotation Yrotation 
						JOINT LowerArm_L
						{
							OFFSET 24.3286 1.87007e-05 0.0
							CHANNELS 6 Xposition Yposition Zposition Zrotation Xrotation Yrotation 
							JOINT Hand_L
							{
								OFFSET 22.2916 0.0 0.0
								CHANNELS 6 Xposition Yposition Zposition Zrotation Xrotation Yrotation 
								End Site
								{
									OFFSET 0.0 0.0 0.0
								}
							}
						}
					}
				}
				JOINT Shoulder_R
				{
					OFFSET 12.9945 -0.242716 -4.98039
					CHANNELS 6 Xposition Yposition Zposition Zrotation Xrotation Yrotation 
					JOINT UpperArm_R
					{
						OFFSET -5.34813 0.0 0.0
						CHANNELS 6 Xposition Yposition Zposition Zrotation Xrotation Yrotation 
						JOINT LowerArm_R
						{
							OFFSET -24.3289 0.000322201 0.0
							CHANNELS 6 Xposition Yposition Zposition Zrotation Xrotation Yrotation 
							JOINT Hand_R
							{
								OFFSET -22.2915 -0.000108084 0.0
								CHANNELS 6 Xposition Yposition Zposition Zrotation Xrotation Yrotation 
								End Site
								{
									OFFSET 0.0 0.0 0.0
								}
							}
						}
					}
				}
			}
		}
		JOINT UpperLeg_L
		{
			OFFSET -2.19248 -6.46944 0.0
			CHANNELS 6 Xposition Yposition Zposition Zrotation Xrotation Yrotation 
			JOINT LowerLeg_L
			{
				OFFSET 39.0811 0.0 -1.23785e-05
				CHANNELS 6 Xposition Yposition Zposition Zrotation Xrotation Yrotation 
				JOINT Foot_L
				{
					OFFSET 40.9854 0.0 -1.26872e-05
					CHANNELS 6 Xposition Yposition Zposition Zrotation Xrotation Yrotation 
					JOINT Toes_L
					{
						OFFSET 11.7543 0.0 0.0
						CHANNELS 6 Xposition Yposition Zposition Zrotation Xrotation Yrotation 
						End Site
						{
							OFFSET 0.0 0.0 0.0
						}
					}
				}
			}
		}
		JOINT UpperLeg_R
		{
			OFFSET -2.19251 6.46944 0.0
			CHANNELS 6 Xposition Yposition Zposition Zrotation Xrotation Yrotation 
			JOINT LowerLeg_R
			{
				OFFSET -39.0811 -0.00228153 -0.0401928
				CHANNELS 6 Xposition Yposition Zposition Zrotation Xrotation Yrotation 
				JOINT Foot_R
				{
					OFFSET -40.9854 0.0 0.0
					CHANNELS 6 Xposition Yposition Zposition Zrotation Xrotation Yrotation 
					JOINT Toes_R
					{
						OFFSET -11.7543 0.0 0.0
						CHANNELS 6 Xposition Yposition Zposition Zrotation Xrotation Yrotation 
						End Site
						{
							OFFSET 0.0 0.0 0.0
						}
					}
				}
			}
		}
	}
}
MOTION
Frames:	8
Frame Time:	0.0333333
0.000000 0.000000 0.000000 0.000000 0.000000 -0.000000 126.145000 91.103500 157.391000 95.973900 -50.961600 -0.369201 15.735700 0.000005 -0.000001 36.068000 82.860100 -34.881100 8.984550 -0.406207 -0.000000 0.787054 -11.610900 2.458210 16.377300 -0.000001 -0.000001 -0.789226 -10.216400 1.675430 6.456720 -0.000001 -0.000000 0.173766 -9.719970 8.164930 12.994200 -0.242716 4.980390 -87.995700 -6.909780 -73.780400 5.348090 -0.000007 -0.000001 -53.499600 33.801100 -45.007200 24.328600 0.000019 0.000005 9.083690 -5.450230 -120.713000 22.291600 -0.000001 0.000005 6.439700 5.502770 -6.645270 12.994500 -0.242716 -4.980390 90.073100 -0.228682 -72.263000 -5.348130 -0.000001 -0.000004 -71.233300 41.881600 30.234100 -24.328900 0.000322 -0.000009 -13.498900 1.734170 -97.184300 -22.291500 -0.000108 -0.000004 16.136200 5.654370 -15.446900 -2.192480 -6.469440 -0.000000 -170.777000 -24.231500 5.517190 39.081100 -0.000007 -0.000012 -0.031824 0.091398 19.197500 40.985400 -0.000006 -0.000013 -9.793220 6.596410 -56.400900 11.754300 -0.000000 0.000003 -0.049890 -0.297381 -28.825100 -2.192510 6.469440 -0.000001 -171.222000 13.214200 147.424000 -39.081100 -0.002282 -0.040193 -0.019611 0.023345 44.420100 -40.985400 0.000008 0.000006 3.803210 7.268000 -62.144600 -11.754300 -0.000006 -0.000006 -0.030405 -0.219315 -25.558900
0.000000 0.000000 0.000000 0.000000 0.000000 -0.000000 123.756000 89.755100 160.375000 97.974000 -51.710500 1.543990 15.735700 0.000005 -0.000001 37.087100 82.429600 -36.008800 8.984550 -0.406207 -0.000000 1.517110 -12.130900 2.322070 16.377300 -0.000001 -0.000001 -1.894900 -10.308400 1.723260 6.456720 -0.000001 -0.000000 -1.164750 -9.791130 8.803170 12.994200 -0.242716 4.980390 -87.992800 -7.323110 -74.626100 5.348090 -0.000007 -0.000001 -51.783500 35.089400 -46.322700 24.328600 0.000019 0.000005 9.036890 -5.196870 -119.661000 22.291600 -0.000001 0.000005 6.490750 5.506410 -6.793490 12.994500 -0.242716 -4.980390 89.846600 0.489351 -72.590400 -5.348130 -0.000001 -0.000004 -70.076700 38.950900 28.344000 -24.328900 0.000322 -0.000009 -13.535100 1.501230 -96.210600 -22.291500 -0.000108 -0.000004 16.545200 5.652710 -15.276600 -2.192480 -6.469440 -0.000000 -171.273000 -22.994200 7.270470 39.081100 -0.000007 -0.000012 -0.046557 0.114093 22.198500 40.985400 -0.000006 -0.000013 -11.037800 6.740760 -57.930300 11.754300 -0.000000 0.000003 -0.079577 -0.390771 -32.798700 -2.192510 6.469440 -0.000001 -166.688000 20.849300 146.959000 -39.081100 -0.002282 -0.040193 -0.024060 0.038832 35.158500 -40.985400 0.000008 0.000006 1.381550 9.458990 -62.803000 -11.754300 -0.000006 -0.000006 -0.031953 -0.226278 -25.848000
0.000000 0.000000 0.000000 0.000000 0.000000 -0.000000 120.902000 87.991400 163.545000 100.100000 -52.205100 3.518980 15.735700 0.000005 -0.000001 38.594400 82.259800 -37.697200 8.984550 -0.406207 -0.000000 2.031820 -12.136400 2.013660 16.377300 -0.000001 -0.000001 -2.636570 -10.845000 1.640660 6.456720 -0.000001 -0.000000 -2.539070 -10.117100 9.452160 12.994200 -0.242716 4.980390 -88.425800 -6.168070 -75.655000 5.348090 -0.000007 -0.000001 -50.803500 37.244000 -45.150100 24.328600 0.000019 0.000005 9.043390 -4.576980 -116.625000 22.291600 -0.000001 0.000005 7.311000 5.520800 -7.392110 12.994500 -0.242716 -4.980390 89.128800 2.806760 -72.747800 -5.348130 -0.000001 -0.000004 -68.458600 35.746600 25.463500 -24.328900 0.000322 -0.000009 -13.397400 0.621956 -92.606200 -22.291500 -0.000108 -0.000004 17.858900 5.657500 -15.773000 -2.192480 -6.469440 -0.000000 -171.911000 -21.093000 8.227630 39.081100 -0.000007 -0.000012 -0.062010 0.121986 26.945900 40.985400 -0.000006 -0.000013 -12.613700 6.872730 -59.464400 11.754300 -0.000000 0.000003 -0.131032 -0.515834 -38.283500 -2.192510 6.469440 -0.000001 -161.712000 27.465200 144.794000 -39.081100 -0.002282 -0.040193 -0.046312 0.079692 31.903100 -40.985400 0.000008 0.000006 5.963110 5.587940 -62.111900 -11.754300 -0.000006 -0.000006 -0.026792 -0.202367 -24.856300
0.000000 0.000000 0.000000 0.000000 0.000000 -0.000000 117.282000 85.867600 167.258000 102.467000 -52.159700 5.741310 15.735700 0.000005 -0.000001 38.047800 82.485800 -37.308500 8.984550 -0.406207 -0.000000 1.610510 -11.868300 1.648700 16.377300 -0.000001 -0.000001 -2.668100 -11.423800 0.745708 6.456720 -0.000001 -0.000000 -2.551990 -11.144900 9.418830 12.994200 -0.242716 4.980390 -89.279000 -3.064640 -76.762900 5.348090 -0.000007 -0.000001 -52.121700 40.053500 -39.147100 24.328600 0.000019 0.000005 9.713750 -3.641180 -110.363000 22.291600 -0.000001 0.000005 8.121630 5.542780 -8.367050 12.994500 -0.242716 -4.980390 88.044100 6.303620 -72.724200 -5.348130 -0.000001 -0.000004 -66.593500 32.997600 22.282700 -24.328900 0.000322 -0.000009 -13.502900 -0.932067 -86.126200 -22.291500 -0.000108 -0.000004 19.951500 5.665020 -16.640900 -2.192480 -6.469440 -0.000000 -172.224000 -19.774400 7.987940 39.081100 -0.000007 -0.000012 -0.067628 0.098578 34.452000 40.985400 -0.000006 -0.000013 -13.785400 7.810390 -58.295800 11.754300 -0.000000 0.000003 -0.245831 -0.716317 -47.660700 -2.192510 6.469440 -0.000001 -159.569000 30.012800 144.462000 -39.081100 -0.002282 -0.040193 -0.227705 0.329550 35.028600 -40.985400 0.000008 0.000006 29.529100 -3.436730 -66.701600 -11.754300 -0.000006 -0.000006 -0.014978 -0.137680 -22.190400
0.000000 0.000000 0.000000 0.000000 0.000000 -0.000000 113.278000 84.438700 170.708000 103.937000 -53.733400 8.247990 15.735700 0.000005 -0.000001 42.346900 83.055500 -41.477600 8.984550 -0.406207 -0.000000 1.697570 -10.305400 1.893580 16.377300 -0.000001 -0.000001 -2.779690 -12.031400 0.177552 6.456720 -0.000001 -0.000000 -2.306860 -11.948600 7.275920 12.994200 -0.242716 4.980390 -90.331600 1.379230 -76.509600 5.348090 -0.000007 -0.000001 -55.607200 41.814300 -29.860000 24.328600 0.000019 0.000005 12.404800 -2.063200 -99.320300 22.291600 -0.000001 0.000005 8.756960 5.551450 -8.773120 12.994500 -0.242716 -4.980390 86.579300 10.755100 -72.238300 -5.348130 -0.000001 -0.000004 -63.028000 32.667100 16.920500 -24.328900 0.000322 -0.000009 -14.449000 -2.617370 -79.951200 -22.291500 -0.000108 -0.000004 22.555200 5.668650 -17.158400 -2.192480 -6.469440 -0.000000 -171.426000 -20.217000 5.695250 39.081100 -0.000007 -0.000012 0.075108 -0.074478 45.240300 40.985400 -0.000006 -0.000013 -11.316100 7.816090 -50.100600 11.754300 -0.000000 0.000003 -0.354956 -0.855613 -54.840200 -2.192510 6.469440 -0.000001 -165.003000 22.649300 146.365000 -39.081100 -0.002282 -0.040193 -0.508551 0.512794 44.946400 -40.985400 0.000008 0.000006 23.810600 -11.290200 -71.651200 -11.754300 -0.000006 -0.000006 -0.007941 -0.087546 -20.138000
0.000000 0.000000 0.000000 0.000000 0.000000 -0.000000 109.267000 83.785300 173.262000 102.860000 -57.848800 10.132200 15.735700 0.000005 -0.000001 53.990900 83.050200 -52.402600 8.984550 -0.406207 -0.000000 3.625420 -8.219050 3.437820 16.377300 -0.000001 -0.000001 -2.651950 -11.068900 0.652401 6.456720 -0.000001 -0.000000 -3.574160 -11.458500 4.451660 12.994200 -0.242716 4.980390 -90.733800 2.779860 -75.206300 5.348090 -0.000007 -0.000001 -65.386000 39.292200 -17.066600 24.328600 0.000019 0.000005 17.886900 2.103580 -83.551800 22.291600 -0.000001 0.000005 10.299800 5.564830 -9.397590 12.994500 -0.242716 -4.980390 86.218100 12.334500 -72.805900 -5.348130 -0.000001 -0.000004 -60.769000 35.727900 8.030890 -24.328900 0.000322 -0.000009 -16.433800 -2.988880 -79.972200 -22.291500 -0.000108 -0.000004 23.613300 5.669210 -17.264200 -2.192480 -6.469440 -0.000000 -170.186000 -18.812100 0.934960 39.081100 -0.000007 -0.000012 0.211642 -0.130756 58.290800 40.985400 -0.000006 -0.000013 -6.985760 4.675700 -38.027000 11.754300 -0.000000 0.000003 -0.095460 -0.433164 -34.634200 -2.192510 6.469440 -0.000001 -166.104000 18.646300 152.595000 -39.081100 -0.002282 -0.040193 -0.441524 0.407591 47.499000 -40.985400 0.000008 0.000006 23.177200 -13.835800 -75.478900 -11.754300 -0.000006 -0.000006 -0.008303 -0.090485 -20.258000
0.000000 0.000000 0.000000 0.000000 0.000000 -0.000000 106.043000 84.062200 175.017000 103.332000 -61.630500 11.245700 15.735700 0.000005 -0.000001 61.181800 83.267400 -59.494400 8.984550 -0.406207 -0.000000 4.152410 -6.534090 3.611060 16.377300 -0.000001 -0.000001 -2.420770 -10.551700 1.385190 6.456720 -0.000001 -0.000000 -3.323400 -10.430100 4.220930 12.994200 -0.242716 4.980390 -90.761700 2.892120 -75.238500 5.348090 -0.000007 -0.000001 -70.885900 33.447000 -3.546180 24.328600 0.000019 0.000005 22.278900 5.469670 -76.902600 22.291600 -0.000001 0.000005 11.591700 5.590970 -10.824600 12.994500 -0.242716 -4.980390 86.583200 11.590400 -73.450700 -5.348130 -0.000001 -0.000004 -60.944800 39.663300 -1.481030 -24.328900 0.000322 -0.000009 -13.256300 -1.270840 -84.635200 -22.291500 -0.000108 -0.000004 21.926100 5.671050 -17.554200 -2.192480 -6.469440 -0.000000 -172.603000 -15.457600 -7.780370 39.081100 -0.000007 -0.000012 0.121682 -0.044445 69.932700 40.985400 -0.000006 -0.000013 -0.425980 -2.252600 -33.322300 11.754300 -0.000000 0.000003 -0.007999 -0.088034 -20.161600 -2.192510 6.469440 -0.000001 -167.001000 20.204900 157.563000 -39.081100 -0.002282 -0.040193 -0.280235 0.271126 46.277900 -40.985400 0.000008 0.000006 23.993800 -9.940410 -79.228200 -11.754300 -0.000006 -0.000006 -0.007479 -0.083725 -19.982000
0.000000 0.000000 0.000000 0.000000 0.000000 -0.000000 102.917000 85.545300 176.507000 107.566000 -67.486500 15.330500 15.735700 0.000005 -0.000001 72.097600 83.668000 -71.168000 8.984550 -0.406207 -0.000000 4.325500 -3.914460 2.005600 16.377300 -0.000001 -0.000001 -2.072170 -9.806980 2.564710 6.456720 -0.000001 -0.000000 -2.614850 -10.325200 5.555690 12.994200 -0.242716 4.980390 -90.970500 3.350300 -73.834300 5.348090 -0.000007 -0.000001 -67.980900 33.371200 8.279900 24.328600 0.000019 0.000005 16.574200 2.773750 -80.782800 22.291600 -0.000001 0.000005 12.716200 5.614370 -12.218900 12.994500 -0.242716 -4.980390 87.372300 10.078100 -75.306500 -5.348130 -0.000001 -0.000004 -62.000500 43.824400 -10.336200 -24.328900 0.000322 -0.000009 -9.054080 0.046603 -90.298900 -22.291500 -0.000108 -0.000004 22.279000 5.669060 -17.244700 -2.192480 -6.469440 -0.000000 -176.139000 -13.318600 -15.149900 39.081100 -0.000007 -0.000012 -0.057660 0.012949 77.349100 40.985400 -0.000006 -0.000013 6.223320 -10.833100 -39.958500 11.754300 -0.000000 0.000003 -0.009548 -0.100236 -20.660200 -2.192510 6.469440 -0.000001 -169.389000 20.373300 164.483000 -39.081100 -0.002282 -0.040193 -0.004342 0.008964 40.364900 -40.985400 0.000008 0.000006 26.220600 -4.240860 -80.673200 -11.754300 -0.000006 -0.000006 -0.007398 -0.083042 -19.954000
